HIERARCHY
ROOT Hips
{
	OFFSET	0	0	0
	CHANNELS 6  Xposition Yposition Zposition Xrotation Yrotation Zrotation
	JOINT Spine
	{
		OFFSET	0	7.06441	1.42252
		CHANNELS 3  Xrotation Yrotation Zrotation
		JOINT Spine1
		{
			OFFSET	0	12.1312	-2.16628
			CHANNELS 3  Xrotation Yrotation Zrotation
			JOINT Spine2
			{
				OFFSET	0	9.19586	0.985658
				CHANNELS 3  Xrotation Yrotation Zrotation
				JOINT Spine3
				{
					OFFSET	0	11.0047	3.27108
					CHANNELS 3  Xrotation Yrotation Zrotation
					JOINT Spine4
					{
						OFFSET	0	16.2904	-1.66804
						CHANNELS 3  Xrotation Yrotation Zrotation
						JOINT Neck
						{
							OFFSET	0	7.77695	-5.4482
							CHANNELS 3  Xrotation Yrotation Zrotation
							JOINT Head
							{
								OFFSET	0	9.33667	-2.7945
								CHANNELS 3  Xrotation Yrotation Zrotation
								End Site
								{
									OFFSET	0	19.4749	-0.942332
								}
							}
						}
					}
					JOINT LeftShoulder
					{
						OFFSET	-4.67917	19.7998	-9.33667
						CHANNELS 3  Xrotation Yrotation Zrotation
						JOINT LeftArm
						{
							OFFSET	-10.2118	-2.7945	3.58522
							CHANNELS 3  Xrotation Yrotation Zrotation
							JOINT LeftForeArm
							{
								OFFSET	-34.1503	-1.55868	2.43761
								CHANNELS 3  Xrotation Yrotation Zrotation
								JOINT LeftHand
								{
									OFFSET	-28.0847	-1.94081	2.00465
									CHANNELS 3  Xrotation Yrotation Zrotation
									End Site
									{
										OFFSET	-10.2495	-0.708301	0.731552
									}
								}
							}
						}
					}
					JOINT RightShoulder
					{
						OFFSET	4.67917	19.7998	-9.33667
						CHANNELS 3  Xrotation Yrotation Zrotation
						JOINT RightArm
						{
							OFFSET	10.2118	-2.7945	3.58522
							CHANNELS 3  Xrotation Yrotation Zrotation
							JOINT RightForeArm
							{
								OFFSET	34.1503	-1.55868	2.43761
								CHANNELS 3  Xrotation Yrotation Zrotation
								JOINT RightHand
								{
									OFFSET	28.0847	-1.94081	2.00465
									CHANNELS 3  Xrotation Yrotation Zrotation
									End Site
									{
										OFFSET	10.2495	-0.708301	0.731552
									}
								}
							}
						}
					}
				}
			}
		}
	}
	JOINT LeftUpLeg
	{
		OFFSET	-9.64713	-3.53221	-0.711262
		CHANNELS 3  Xrotation Yrotation Zrotation
		JOINT LeftLeg
		{
			OFFSET	-2.16918	-42.5043	-0.664435
			CHANNELS 3  Xrotation Yrotation Zrotation
			JOINT LeftFoot
			{
				OFFSET	-2.12038	-39.0853	3.36133
				CHANNELS 3  Xrotation Yrotation Zrotation
				JOINT LeftToeBase
				{
					OFFSET	0	-4.88516	-12.975
					CHANNELS 3  Xrotation Yrotation Zrotation
					End Site
					{
						OFFSET	0	-1.95406	-7.81626
					}
				}
			}
		}
	}
	JOINT RightUpLeg
	{
		OFFSET	9.64713	-3.53221	-0.711262
		CHANNELS 3  Xrotation Yrotation Zrotation
		JOINT RightLeg
		{
			OFFSET	2.16918	-42.5043	-0.664435
			CHANNELS 3  Xrotation Yrotation Zrotation
			JOINT RightFoot
			{
				OFFSET	2.12038	-39.0853	3.36133
				CHANNELS 3  Xrotation Yrotation Zrotation
				JOINT RightToeBase
				{
					OFFSET	0	-4.88516	-12.975
					CHANNELS 3  Xrotation Yrotation Zrotation
					End Site
					{
						OFFSET	0	-1.95406	-7.81626
					}
				}
			}
		}
	}
}
MOTION
Frames: 6
Frame Time: 0.020408
 -35.8878 74.877 169.573 1.5253 -21.8189 10.075 0.000494921 0.00894791 -3.16588 168.753 179.982 174.724 167.764 179.946 174.724 169.526 179.991 176.834 3.19268 -0.0587801 -1.05365 20.1856 6.21705 -3.57634 6.11625 13.3389 -0.749005 1.27178 2.78953 2.38849 23.2529 -53.0621 75.1649 166.601 -135.007 168.732 -0 -12.414 -0.468986 174.901 170.617 -169.394 13.4136 43.0548 -62.58 12.6334 40.4013 -6.54425 -0 10.7389 5.82892 57.7078 -2.72617 -28.2748 93.8446 -161.012 -179.999 179.696 -179.964 -168.513 0.760726 0 0 38.7191 -19.8814 32.5646 118.475 -167.277 179.669 177.673 -179.999 172.503 179.824 180 -180
 -36.0172 75.151 169.362 1.46642 -21.7595 10.066 0.000549477 0.00991064 -3.17341 168.817 179.98 174.711 167.828 179.941 174.711 169.566 179.99 176.827 3.2208 -0.0594383 -1.05613 20.1872 5.87228 -4.01699 6.12856 13.5839 -0.914046 1.3548 2.61667 2.54903 22.9912 -53.0542 75.1899 166.674 -135.309 168.808 -0 -12.31 -0.44803 174.843 171.627 -169.334 13.8505 43.336 -63.1683 12.5366 40.5792 -6.47634 -0 10.3523 4.86786 57.1984 -2.51628 -28.2541 94.0608 -161.046 179.942 179.906 -179.936 -168.497 0.762918 0 0 38.5386 -20.0523 32.3536 119.008 -166.972 179.693 177.22 -179.973 172.507 179.83 180 -180
 -36.0041 75.3489 169.103 1.54302 -21.927 10.1266 0.00014986 0.00271887 -3.15487 168.943 179.995 174.742 167.951 179.984 174.742 169.65 179.997 176.845 3.26477 -0.0598967 -1.04991 20.1968 5.87721 -4.18875 6.13698 13.8543 -0.969929 1.35519 2.62877 2.54945 22.6367 -53.0163 75.0711 166.754 -135.508 168.913 -0 -12.1706 -0.403235 174.871 172.297 -169.436 14.1735 43.7903 -63.8027 12.2878 40.167 -6.27423 -0 9.79729 3.80403 56.6798 -2.45298 -28.1906 94.2506 -161.129 179.945 0.0986375 -0.0580892 11.5043 0.764837 0 0 38.2852 -20.2895 32.333 119.448 -166.79 179.668 176.945 179.989 172.472 179.836 180 -180
 -36.0454 75.435 168.953 1.48117 -21.964 10.0572 179.999 -179.989 176.848 169.052 -179.978 174.746 168.069 -179.934 174.746 169.765 -179.989 176.848 3.20425 -0.0587383 -1.0491 19.9348 6.05747 -4.25185 6.05977 14.1981 -0.969394 1.35377 2.6398 2.5465 22.4184 -53.038 75.1242 166.85 -135.719 169.022 -0 -12.0209 -0.316479 174.897 172.591 -169.509 14.2062 44.2639 -64.3752 11.9361 39.4233 -5.87498 -0 9.18754 2.72055 56.3138 -2.63836 -28.0781 94.3705 -161.156 -179.965 0.236607 -0.0727889 11.506 0.766386 0 0 38.1128 -20.4936 32.3448 119.815 -166.607 179.749 177.119 179.993 172.438 179.843 180 -180
 -35.9972 75.3972 168.795 1.42813 -21.9459 10.0478 180 -179.994 176.855 169.156 -179.987 174.758 168.189 -179.962 174.758 169.878 -179.994 176.855 3.13651 -0.0573692 -1.04682 19.6747 6.3827 -4.28734 5.98273 14.6858 -0.950305 1.33398 2.36526 2.51615 22.4904 -53.161 75.2805 166.972 -136.068 169.15 -0 -11.8162 -0.189642 175.039 172.907 -169.826 14.4818 44.6225 -65.2174 11.5988 38.8228 -5.46995 -0 8.63919 1.73306 55.816 -3.09528 -28.3813 94.3987 -161.231 179.943 0.49887 -0.0181804 11.4921 0.76764 0 0 38.0324 -20.6233 32.338 120.379 -166.408 179.861 177.364 -179.97 172.421 179.85 180 -180
 -35.8799 75.3248 168.616 1.49752 -21.935 10.2339 180 -179.991 176.871 169.256 -179.982 174.785 168.314 -179.947 174.785 170.021 -179.991 176.871 2.99085 -0.0544279 -1.04162 19.1996 6.81673 -4.17957 5.83564 15.1183 -0.869726 1.35089 2.10682 2.55464 22.7163 -53.2492 75.6741 167.099 -136.26 169.253 -0 -11.64 -0.12279 175.091 173.201 -169.953 14.7782 44.9064 -65.7647 11.3064 38.3361 -5.21739 -0 8.17619 0.890334 55.5495 -3.569 -28.3923 94.3247 -161.199 -179.863 0.824708 -0.0213309 11.4938 0.775786 0 0 37.7321 -20.788 32.2952 121.142 -166.243 179.944 177.395 -179.99 172.406 179.855 180 -180
